<?xml version="1.0" encoding="UTF-8"?>
<svg version="1.1" viewBox="0 0 2048 1373" width="610" height="409" xmlns="http://www.w3.org/2000/svg">
<path transform="translate(291,473)" d="m0 0h14l1 1v52l22-22 3-2 4 1 7 7-1 4-8 7-15 14-11 9-1 8v36l13-12 8-7 13-12 7-7 2-3 4 1 7 8v3l-23 23-8 7-10 10-10 8-2 3-1 55 11-9 12-11 8-7 23-23 8-7 3-4 5 1 8 8-2 4-15 14-7 7h-2v2l-8 7-9 9-8 7-7 7-8 7-10 9-1 1-1 23-1 53h28l36 2 59 6 9 2-1-63-11-11-8-7-15-15-8-7-10-10 1-4 7-6 4 2 10 10 8 7 15 14 7 6v-34l-29-29-8-7-5-4 2-4 7-6 4 2 12 12 8 7 5 4 4 4v-29l-16-16-8-7-6-7 8-7 4 1 15 14 4 3v-43h12l3 2-1 41 10-8 12-12 4 2 6 6-2 4-29 29-1 29 8-6 15-14 11-11 4 1 5 5 2 4-16 15-13 12-5 6-8 7-2 5v30l10-9 13-12 9-9 11-9 3-3 4 1 5 7-2 4-4 5h-2l-2 4-12 11-13 12-11 11-8 7-1 1-1 65 10 1 52 10h6l21-6 33-9h3l1-135 24-16 31-21 17-12 27-18 8-6 5 1 22 14 23 16 33 22 16 11 15 10v118l46 4 39 5 8 2 1 1v13l-10-1-46-7-25-2-22-1h-84l-35 2-33 4-56 10-32 8 9 3 28 7 25 6h8l35-10 32-7 47-6 28-2h61l27 2 43 6 1 2v11l-3 1-32-5-29-2h-78l-34 3-43 7-31 8 31 9 30 8 8-1 16-5 23-6 29-5 21-2h56l29 3 7 2v13l-11-1-31-3h-43l-31 3-36 7-19 5-6 1h-19l-17-3-19-5-41-10-30-8-40-10-24-5-15-4-38-7-35-6-41-5-47-4h-87l-65 6-24 4-32 6-1-2v-11l3-2 33-7 29-4 37-4 40-2h7l-1-76-13-12-8-7-10-9-13-12-8-8-8-7-10-9-8-7-2-4 5-5h2l2-4h3l10 9 8 7 11 10 8 7 8 8 8 7 13 12 2 1 1-8v-12l1-6-1-16v-10l-7-8-8-7-12-11-8-7-13-12-8-7-1-4 7-8 1-2 4 1 4 5 8 7 14 13 8 7 10 9v-42l-7-7-11-9-10-9-8-7-2-2 1-4 6-5 1-2 4 1 13 13 11 9 2 2 1-52zm403 114v169h21l68-1v-107l-8-7-20-14-24-16-23-16-13-8zm-16 0-19 13-30 20-19 13-16 12-2 2v122l11-1 25-4 46-5 5-2v-170z" fill="#FEFEFE"/>
<path transform="translate(246,800)" d="m0 0h72l28 2 41 5 31 6 27 6 19 6 27 9 11 4v2h-35l-46-11-37-7-26-4-20-2-52-2-37 1-32 2-32 5-41 8h-3v-14l27-6 26-4 39-5z" fill="#FEFEFE"/>
<path transform="translate(1290,683)" d="m0 0h13l5 3 9 13 14 18 13 17 4 6 1-57h13l1 1 1 12v69h-13l-7-6-11-14-14-19-13-17v55l-1 1h-14l-1-1z" fill="#FEFEFE"/>
<path transform="translate(1550,683)" d="m0 0 14 1v33h41v-33l1-1h13l1 1v80l-1 1h-13l-1-8v-27h-41v34l-1 1h-13l-1-1v-80z" fill="#FEFEFE"/>
<path transform="translate(1702,682)" d="m0 0h14l3 5 11 23 15 36 7 16v3h-15l-5-10-2-9h-40l-5 12-3 6-1 1h-15l2-5 13-33 13-28 6-15zm6 18-11 26-2 4v3h28l-3-9-10-24z" fill="#FEFEFE"/>
<path transform="translate(1048,683)" d="m0 0h10l4 1 1 54 3 8 6 5 5 2h14l6-3 5-6 2-8 1-53h10l5 1v43l-2 17-4 10-5 6-10 5-9 2h-15l-12-4-8-6-5-8-2-6-1-8v-51z" fill="#FEFEFE"/>
<path transform="translate(1203,681)" d="m0 0h13l10 3 9 5 4 3-2 5-4 6-5-1-10-5-3-1h-11l-10 4-3 3h-2l-6 12-1 5v9l3 9 6 8 5 4 8 3h12l10-4 5-4 5 1 6 6-2 4-8 6-11 4-4 1h-16l-13-4-6-4-6-5-6-9-3-7-1-6v-15l3-11 6-9 7-7 9-5 7-3z" fill="#FEFEFE"/>
<path transform="translate(950,683)" d="m0 0h13l2 1v69h44v11l-1 1h-58l-1-53v-28z" fill="#FEFEFE"/>
<path transform="translate(1829,683)" d="m0 0h14l1 4v31l-1 28-4 10-6 7-10 4-4 1h-9l-15-5-7-6 1-5 5-7 4 1 6 5 5 2h10l5-3 3-5 1-4z" fill="#FEFEFE"/>
<path transform="translate(1416,682)" d="m0 0 14 1v81l-1 1h-13l-1-2v-80z" fill="#FEFEFE"/>
<path transform="translate(1190,659)" d="m0 0 12 1 3 5v3l4-1 3-7 14-1-2 4-8 11-2 1h-14l-4-4-6-9z" fill="#FEFEFE"/>
<path transform="translate(1426,659)" d="m0 0h14l-3 5-7 9-6 2h-8l2-5z" fill="#FEFEFE"/>
<path transform="translate(1714,659)" d="m0 0h15l-6 7-7 8-13 1 7-11z" fill="#FEFEFE"/>
</svg>
